<svg id="marvel" xmlns="http://www.w3.org/2000/svg" width="195.912" height="78.365" viewBox="0 0 195.912 78.365">
  <path id="Path_5" data-name="Path 5" d="M0,0H195.912V78.365H0Z" fill="#f0141e"/>
  <path id="Path_6" data-name="Path 6" d="M175.154,27.977v-12H141.572l-5.529,40.077-5.462-40.077H118.471l1.353,10.7a19.137,19.137,0,0,0-17.264-10.7c-.072,0-12.125,0-12.125,0l-.05,58.415L81.56,15.976l-15.863,0L56.566,76.5l.005-60.519H41.388l-5.472,34-5.33-34H15.4v65.8h11.96V50.06L32.8,81.776h6.357L44.521,50.06V81.776H67.575l1.394-10.121H78.25l1.394,10.121,22.636.014h.016v-.014h.028V60.42l2.772-.4,5.745,21.772h11.709l0-.014h.033l-7.538-25.512c3.817-2.813,8.131-9.944,6.983-16.769v0c.014.089,7.117,42.327,7.117,42.327l13.923-.043,9.513-59.637V81.777h22.576V69.944H164.439V54.856h10.714V42.843H164.439V27.977ZM70.377,61.224,73.664,33.09l3.4,28.134Zm34.758-12.991a6.541,6.541,0,0,1-2.81.663V27.733l.06,0c.933-.007,7.916.28,7.916,10.465,0,5.328-2.374,8.688-5.166,10.037Zm94.111,21.7V81.762H177.22V15.967h11.861V69.933Z" transform="translate(-9.365 -9.711)" fill="#fff"/>
</svg>
